<svg xmlns="http://www.w3.org/2000/svg" viewBox="0 0 100 100" width="100" height="100">
  <defs>
    <linearGradient id="mailGradient" x1="0%" y1="0%" x2="100%" y2="100%">
      <stop offset="0%" style="stop-color:#2563eb;stop-opacity:1" />
      <stop offset="100%" style="stop-color:#1d4ed8;stop-opacity:1" />
    </linearGradient>
    <linearGradient id="shieldGradient" x1="0%" y1="0%" x2="100%" y2="100%">
      <stop offset="0%" style="stop-color:#10b981;stop-opacity:1" />
      <stop offset="100%" style="stop-color:#059669;stop-opacity:1" />
    </linearGradient>
  </defs>
  
  <!-- Background Circle -->
  <circle cx="50" cy="50" r="48" fill="url(#mailGradient)" stroke="#ffffff" stroke-width="2"/>
  
  <!-- Mail Envelope -->
  <rect x="20" y="30" width="60" height="40" rx="4" ry="4" fill="#ffffff" opacity="0.9"/>
  
  <!-- Mail Envelope Flap -->
  <polygon points="20,30 50,55 80,30" fill="url(#mailGradient)" opacity="0.8"/>
  
  <!-- Security Shield -->
  <path d="M65 20 L75 25 L75 35 C75 42 70 47 65 50 C60 47 55 42 55 35 L55 25 Z" fill="url(#shieldGradient)" stroke="#ffffff" stroke-width="1"/>
  
  <!-- Shield Check Mark -->
  <path d="M60 32 L63 35 L70 28" stroke="#ffffff" stroke-width="2" fill="none" stroke-linecap="round" stroke-linejoin="round"/>
  
  <!-- Mail Lines -->
  <line x1="25" y1="40" x2="45" y2="40" stroke="url(#mailGradient)" stroke-width="2" opacity="0.6"/>
  <line x1="25" y1="45" x2="40" y2="45" stroke="url(#mailGradient)" stroke-width="2" opacity="0.6"/>
  
  <!-- Temporary Indicator (Clock) -->
  <circle cx="75" cy="65" r="8" fill="#f59e0b" stroke="#ffffff" stroke-width="1"/>
  <line x1="75" y1="60" x2="75" y2="65" stroke="#ffffff" stroke-width="1.5" stroke-linecap="round"/>
  <line x1="75" y1="65" x2="78" y2="68" stroke="#ffffff" stroke-width="1.5" stroke-linecap="round"/>
</svg>